<?xml version="1.0" encoding="UTF-8"?>
<svg id="Layer_1" xmlns="http://www.w3.org/2000/svg" version="1.1" viewBox="0 0 417.87 360">
  <!-- Generator: Adobe Illustrator 29.8.3, SVG Export Plug-In . SVG Version: 2.1.1 Build 3)  -->
  <defs>
    <style>
      .st0 {
        fill: #5191cd;
      }
    </style>
  </defs>
  <path class="st0" d="M173.68,203.26c2.36-21.68,9.54-28.9,21.51-50.01,14.85-26.2-12.79-36.93-48.74-37.84h-77.32l38.65,66.96-38.65,66.96h77.32l42.36,73.36,42.36-73.36c-51.03.71-58.96-32.44-57.49-46.06h0ZM308.47,115.4h-77.32l-42.34-73.37-36.39,63.01c30.4.02,68.3,3.25,79.61,24.81,11.56,22.05-7.67,38.04-8.08,56.19-.4,18.29,34.75,18.17,58.06,17.74.06,0,.11,0,.18,0l-12.38-21.42,38.65-66.96h0Z"/>
</svg>